<svg width="38" height="36" viewBox="0 0 38 36" fill="none" xmlns="http://www.w3.org/2000/svg">
<path d="M37.296 35.712C35.64 35.712 34.848 34.272 34.452 32.868L24.588 0C22.284 7.668 20.052 15.336 17.676 23.004L10.8 0L0 36H7.812L4.68 25.596C4.464 24.912 4.392 24.228 4.392 23.544C4.392 22.752 4.5 21.996 4.716 21.24L6.192 16.308L12.096 36H23.508V35.712C21.852 35.712 21.06 34.272 20.664 32.868C18.468 25.596 18.468 25.596 18.468 25.596C18.252 24.912 18.18 24.192 18.18 23.508C18.18 22.752 18.288 21.96 18.504 21.24L19.98 16.308L25.884 36H37.296V35.712Z" fill="#070707"/>
</svg>
