<svg width="50" height="48" viewBox="0 0 50 48" fill="none" xmlns="http://www.w3.org/2000/svg">
<path d="M49.728 47.616C47.52 47.616 46.464 45.696 45.936 43.824L32.784 0C29.712 10.224 26.736 20.448 23.568 30.672L14.4 0L0 48H10.416L6.24 34.128C5.952 33.216 5.856 32.304 5.856 31.392C5.856 30.336 6 29.328 6.288 28.32L8.256 21.744L16.128 48H31.344V47.616C29.136 47.616 28.08 45.696 27.552 43.824C24.624 34.128 24.624 34.128 24.624 34.128C24.336 33.216 24.24 32.256 24.24 31.344C24.24 30.336 24.384 29.28 24.672 28.32L26.64 21.744L34.512 48H49.728V47.616Z" fill="#EFEFFF"/>
</svg>
